<svg width="176" height="44" viewBox="0 0 176 44" fill="none" xmlns="http://www.w3.org/2000/svg">
<path d="M24.2812 32.1836C24.2812 35.2279 23.1328 37.8073 20.8359 39.9219C18.612 41.9818 15.9596 43.0117 12.8789 43.0117C7.88411 43.0117 3.83724 40.1771 0.738281 34.5078L4.15625 32.457C6.5625 36.8867 9.34245 39.1016 12.4961 39.1016C15.4857 39.1016 17.6549 37.944 19.0039 35.6289C19.6237 34.5716 19.9336 33.4505 19.9336 32.2656C19.9336 30.9167 19.4779 29.5951 18.5664 28.3008C17.3815 26.6055 15.1758 24.5547 11.9492 22.1484C8.64974 19.7057 6.47135 17.7734 5.41406 16.3516C3.99219 14.4375 3.28125 12.3867 3.28125 10.1992C3.28125 6.48047 4.88542 3.74609 8.09375 1.99609C9.60677 1.17578 11.2565 0.765625 13.043 0.765625C16.8711 0.765625 20.3893 2.96224 23.5977 7.35547L20.3164 9.84375C19.0951 8.23958 18.056 7.10026 17.1992 6.42578C15.9232 5.42318 14.5104 4.92188 12.9609 4.92188C11.4115 4.92188 10.1172 5.38672 9.07812 6.31641C7.98438 7.26432 7.4375 8.50391 7.4375 10.0352C7.4375 11.8398 8.28516 13.5807 9.98047 15.2578C10.4727 15.7318 12.2044 17.0716 15.1758 19.2773C17.9102 21.3008 19.9518 23.1237 21.3008 24.7461C23.2878 27.1706 24.2812 29.6497 24.2812 32.1836ZM54.1833 5.74219H35.152V18.3203H54.0192V22.2578H35.152V38.0352H54.0192V42H31.1325V1.77734H54.1833V5.74219ZM78.9447 42H59.4486V1.77734H63.4955V38.1172H78.9447V42ZM87.0811 42H83.0616V1.77734H87.0811V42ZM126.253 42H125.35L98.8269 11.5938V42H94.6706V1.77734H95.5456L122.288 32.5664V1.77734H126.253V42ZM175.022 21.875C175.022 27.7995 172.98 32.8034 168.897 36.8867C164.832 40.9701 159.837 43.0117 153.913 43.0117C147.988 43.0117 142.966 40.9974 138.846 36.9688C134.726 32.9401 132.666 27.9727 132.666 22.0664C132.666 18.2383 133.587 14.6745 135.428 11.375C137.269 8.07552 139.83 5.46875 143.112 3.55469C146.338 1.69531 149.829 0.765625 153.584 0.765625C159.636 0.765625 164.713 2.76172 168.815 6.75391C172.953 10.8008 175.022 15.8411 175.022 21.875ZM170.866 21.875C170.866 15.2396 168.031 10.2904 162.362 7.02734C159.664 5.47786 156.802 4.70312 153.776 4.70312C150.768 4.70312 147.942 5.47786 145.299 7.02734C142.656 8.57682 140.587 10.6641 139.092 13.2891C137.597 15.9141 136.85 18.8398 136.85 22.0664C136.85 26.8242 138.482 30.8529 141.745 34.1523C145.008 37.4518 149.018 39.1016 153.776 39.1016C156.875 39.1016 159.746 38.3542 162.389 36.8594C165.051 35.3646 167.129 33.2956 168.623 30.6523C170.118 28.0091 170.866 25.0833 170.866 21.875Z" fill="black"/>
</svg>
